# xmcd
#
# Track frame offsets:
#	150
#	19837
#	35925
#	58870
#	83507
#	104900
#	125860
#	153382
#	174170
#	192752
#	214417
#	235747
#
# Disc length: 3507 seconds
#
# Revision: 1
# Processed by: cddbd v1.5PL3 Copyright (c) Steve Scherf et al.
# Submitted via: CDex 1.50Beta5
#
DISCID=aa0db10c
DTITLE=LINDBERG - LINDBERG WORKS〜composer’s BEST〜 Disc 1
DYEAR=2000
DGENRE=Rock
TTITLE0=10セントの小宇宙
TTITLE1=今すぐKiss Me
TTITLE2=Dream On 抱きしめて
TTITLE3=Magical Dreamer
TTITLE4=胸さわぎのAfter School
TTITLE5=君に吹く風
TTITLE6=花火
TTITLE7=アジサイ
TTITLE8=風
TTITLE9=girl
TTITLE10=太陽のかけら
TTITLE11=MINE
EXTD=
EXTT0=
EXTT1=
EXTT2=
EXTT3=
EXTT4=
EXTT5=
EXTT6=
EXTT7=
EXTT8=
EXTT9=
EXTT10=
EXTT11=
PLAYORDER=
